<svg xmlns="http://www.w3.org/2000/svg" width="134" height="134" viewBox="0 0 134 134">
  <g id="Group_169" data-name="Group 169" transform="translate(716 -321)">
    <circle id="Ellipse_1" data-name="Ellipse 1" cx="67" cy="67" r="67" transform="translate(-716 321)" fill="#fff"/>
    <g id="Group_168" data-name="Group 168" transform="translate(-8 0.1)">
      <path id="Path_3" data-name="Path 3" d="M-159.938,67.43V68a.16.16,0,0,1-.16.16h-5a.16.16,0,0,1-.16-.14l-.32-2.1a.16.16,0,0,0-.16-.16.16.16,0,0,0-.16.16l-2.43,7.67a.16.16,0,0,1-.16.16.16.16,0,0,1-.16-.16l-.95-5.26a.161.161,0,0,0-.16-.13h-1.84a.16.16,0,0,1-.16-.16h0V62a.16.16,0,0,0-.16-.16.16.16,0,0,0-.16.16l-2.62,13.53a.16.16,0,0,1-.16.16.16.16,0,0,1-.16-.16l-1.48-10.8a.16.16,0,0,0-.16-.16.16.16,0,0,0-.16.16l-1.14,3.44a.159.159,0,0,1-.16.11h-19a.16.16,0,0,0-.16.14l-.8,5.28a.16.16,0,0,1-.16.16.16.16,0,0,1-.16-.16l-2.51-7.9a.16.16,0,0,0-.16-.16.16.16,0,0,0-.16.16l-.41,2.31a.17.17,0,0,1-.16.14h-1.7a.16.16,0,0,0-.16.16h0v11.2a.511.511,0,0,1-.546.472.51.51,0,0,1-.454-.372l-2.71-14a.16.16,0,0,0-.16-.16.16.16,0,0,0-.16.16l-1.26,9.2a.16.16,0,0,1-.16.16.16.16,0,0,1-.16-.16l-2.2-6.6a.15.15,0,0,0-.15-.11h-17.65a.16.16,0,0,1-.16-.16h0v-.61a.16.16,0,0,1,.16-.16h18.33a.161.161,0,0,1,.15.11l1.14,3.44a.16.16,0,0,0,.16.16.16.16,0,0,0,.16-.16l1.47-10.82a.16.16,0,0,1,.16-.16.16.16,0,0,1,.16.16l2.62,13.53a.16.16,0,0,0,.16.16.16.16,0,0,0,.16-.16v-6a.16.16,0,0,1,.16-.16h1.84a.17.17,0,0,0,.16-.14l.95-5.26a.16.16,0,0,1,.16-.16.16.16,0,0,1,.16.16l2.43,7.67a.16.16,0,0,0,.16.16.16.16,0,0,0,.16-.16l.32-2.1a.16.16,0,0,1,.16-.14h19.17a.159.159,0,0,0,.16-.11l2.19-6.63a.16.16,0,0,1,.16-.16.16.16,0,0,1,.16.16l1.26,9.2a.16.16,0,0,0,.16.16.16.16,0,0,0,.16-.16l2.71-14a.511.511,0,0,1,.628-.355.512.512,0,0,1,.372.455V67.1a.16.16,0,0,0,.16.16h1.69a.16.16,0,0,1,.16.13l.41,2.31a.16.16,0,0,0,.16.16.16.16,0,0,0,.16-.16l2.51-7.9a.16.16,0,0,1,.16-.16.16.16,0,0,1,.16.16l.79,5.27a.16.16,0,0,0,.16.14h4.21a.16.16,0,0,1,.151.168A.156.156,0,0,1-159.938,67.43Z" transform="translate(-436.482 320.73)" fill="#ea2127"/>
      <path id="Path_4" data-name="Path 4" d="M-168.678,48.78h-18.05V30.73a8.86,8.86,0,0,0-8.86-8.86h-18.27a8.86,8.86,0,0,0-8.82,8h4.41a1.87,1.87,0,0,1,1.89,1.85v.01a1.8,1.8,0,0,1-1.8,1.74h-3.45a1.09,1.09,0,0,0-1.09,1.09,1.09,1.09,0,0,0,1.09,1.09h1a1.87,1.87,0,0,1,1.89,1.85v.01a1.8,1.8,0,0,1-1.8,1.74h-1.09a1.09,1.09,0,0,0-1.09,1.09,1.09,1.09,0,0,0,1.09,1.09h3.36a1.87,1.87,0,0,1,1.89,1.85v.01a1.8,1.8,0,0,1-1.8,1.74h-4.54v3.7h-18.06a8.87,8.87,0,0,0-8.86,8.86v1.48h2.17a1.87,1.87,0,0,1,1.881,1.859c0,.024,0,.047,0,.071a1.8,1.8,0,0,1-1.8,1.74,2.261,2.261,0,0,0-2.25,2.26v2.36a2.26,2.26,0,0,0,2.26,2.26h1.51a1.87,1.87,0,0,1,1.89,1.85v.01a1.8,1.8,0,0,1-1.8,1.74h-3.86v2.69a8.86,8.86,0,0,0,8.86,8.86h18.06v2.45h4.45a1.87,1.87,0,0,1,1.89,1.85v.01a1.8,1.8,0,0,1-1.8,1.74h-3.45a1.09,1.09,0,0,0-1.09,1.09,1.09,1.09,0,0,0,1.09,1.09h1a1.88,1.88,0,0,1,1.9,1.86v.02a1.8,1.8,0,0,1-1.8,1.73h-1.1a1.09,1.09,0,0,0-1.09,1.09,1.09,1.09,0,0,0,1.09,1.09h3.36a1.87,1.87,0,0,1,1.89,1.85v.01a1.8,1.8,0,0,1-1.8,1.74h-4.54v.42a8.87,8.87,0,0,0,8.86,8.86h18.26a8.871,8.871,0,0,0,8.86-8.86V84.77h18.06a8.871,8.871,0,0,0,8.86-8.86V57.65A8.87,8.87,0,0,0-168.678,48.78Zm-46.13-12.67a1.59,1.59,0,0,1,1.59,1.59,1.59,1.59,0,0,1-1.59,1.59,1.59,1.59,0,0,1-1.59-1.59h0A1.59,1.59,0,0,1-214.808,36.11ZM-241.6,62.73a1.59,1.59,0,0,1-1.59-1.59,1.59,1.59,0,0,1,1.59-1.59,1.59,1.59,0,0,1,1.59,1.59,1.59,1.59,0,0,1-1.59,1.59Zm26.79,33.89a1.59,1.59,0,0,1-1.59-1.59,1.59,1.59,0,0,1,1.59-1.59,1.59,1.59,0,0,1,1.59,1.56,1.591,1.591,0,0,1-1.56,1.62Zm10.08-9.4a20.44,20.44,0,0,1-20.42-20.46,20.44,20.44,0,0,1,20.46-20.42,20.44,20.44,0,0,1,20.42,20.44,20.44,20.44,0,0,1-20.44,20.44Z" transform="translate(-436.362 321.03)" fill="#3760aa"/>
      <rect id="Rectangle_1" data-name="Rectangle 1" width="10.06" height="3.61" rx="1.8" transform="translate(-670.91 350.63)" fill="#3760aa"/>
      <rect id="Rectangle_2" data-name="Rectangle 2" width="12.77" height="3.61" rx="1.8" transform="translate(-675.99 356.42)" fill="#3760aa"/>
      <rect id="Rectangle_3" data-name="Rectangle 3" width="10.06" height="3.61" rx="1.8" transform="translate(-670.91 362.21)" fill="#3760aa"/>
      <rect id="Rectangle_4" data-name="Rectangle 4" width="12.77" height="3.61" rx="1.8" transform="translate(-701 380.07)" fill="#3760aa"/>
      <rect id="Rectangle_5" data-name="Rectangle 5" width="10.06" height="3.61" rx="1.8" transform="translate(-697.72 390.35)" fill="#3760aa"/>
      <rect id="Rectangle_6" data-name="Rectangle 6" width="10.06" height="3.61" rx="1.8" transform="translate(-670.91 407.95)" fill="#3760aa"/>
      <rect id="Rectangle_7" data-name="Rectangle 7" width="12.77" height="3.61" rx="1.8" transform="translate(-675.99 413.74)" fill="#3760aa"/>
      <rect id="Rectangle_8" data-name="Rectangle 8" width="10.06" height="3.61" rx="1.8" transform="translate(-670.91 419.53)" fill="#3760aa"/>
    </g>
  </g>
</svg>
