<svg id="Layer_1" data-name="Layer 1" xmlns="http://www.w3.org/2000/svg" viewBox="0 0 358.62997 89.8"><defs><style>.cls-1{fill:#3760aa;}.cls-2{fill:#565757;}.cls-3{fill:#ea2127;}</style></defs><title>Final</title><path class="cls-1" d="M369.77,81.07c3.91,0,6.61-2.19,6.61-5.43,0-2.71-1.43-4.26-5.43-5.86-3.72-1.49-4.85-2.54-4.85-4.51,0-2.14,1.75-3.46,4.56-3.46a8.14,8.14,0,0,1,4.65,1.27v-.71a8.76,8.76,0,0,0-4.67-1.18c-3.66,0-6.08,1.89-6.08,4.73,0,2.48,1.52,4,5.58,5.58,3.52,1.4,4.7,2.65,4.7,4.84,0,2.54-1.91,4.11-5,4.11a7.79,7.79,0,0,1-5.52-1.77v.73a8.44,8.44,0,0,0,5.49,1.66m-16.41-.69V71.26l6.73.08V70.6l-6.73.14V61.88l8.16.26V61.4H351.44V80.87h10.62v-.74Zm-12.64.69A10.08,10.08,0,0,0,347.55,79v-.73a8.93,8.93,0,0,1-6.11,2.14c-5.09,0-8.64-3.88-8.64-9.32s3.55-9.26,8.56-9.26A9.37,9.37,0,0,1,347.55,64v-.74a10.41,10.41,0,0,0-6.84-2.06,9.94,9.94,0,1,0-.00806,19.88H340.71M326.38,61.39h-1.92V80.87h1.92ZM313,81.4l8.48-20h-.93l-6.9,17-7.18-17h-2ZM294.45,62h2.39c3.41,0,5.21,1.72,5.21,4.57s-1.88,4.5-5,4.5h-2.56Zm7,18.92h2.06L297,71.58c3.52-.06,5.71-2.06,5.71-5.07,0-3.25-2.16-5.13-5.88-5.13h-4.28V80.87h1.91V71.58H295Zm-21.25-.49V71.26l6.72.08V70.6l-6.72.14V61.88l8.16.26V61.4h-10.1V80.87h10.61v-.74Zm-12.56.69c3.91,0,6.61-2.19,6.61-5.43,0-2.71-1.44-4.26-5.43-5.86-3.72-1.49-4.85-2.54-4.85-4.51,0-2.14,1.75-3.46,4.57-3.46a8.13006,8.13006,0,0,1,4.65,1.27v-.71a8.76,8.76,0,0,0-4.67-1.18c-3.66,0-6.08,1.89-6.08,4.73,0,2.48,1.52,4,5.57,5.58,3.52,1.4,4.7,2.65,4.7,4.84,0,2.54-1.92,4.11-5,4.11a7.79,7.79,0,0,1-5.52-1.77v.73a8.44,8.44,0,0,0,5.49,1.66M246,80.35v-19h-2V80.87h10.53V80.1ZM228.32,72l3.4-8.33L235.29,72Zm10.75,8.84h2l-8.73-20-8.56,20h.9l3.38-8.28h7.43Zm-23.34.2A10.07,10.07,0,0,0,222.57,79v-.73a8.93,8.93,0,0,1-6.11,2.14c-5.09,0-8.64-3.88-8.64-9.32s3.55-9.26,8.56-9.26A9.36,9.36,0,0,1,222.57,64v-.74a10.41,10.41,0,0,0-6.84-2.06,9.94,9.94,0,0,0-.008,19.88h.008M201.4,61.39h-1.92V80.87h1.92ZM185.09,80.31H181V62h4.08c5.69,0,9.52,3.69,9.52,9.15s-3.77,9.21-9.52,9.21m.09-18.92H179.1V80.87h6.08c6,0,10.05-4,10.05-9.74s-4-9.74-10.05-9.74m-18.44,19V71.26l6.73.08V70.6l-6.73.14V61.88l8.16.26V61.4H164.82V80.87h10.61v-.74Zm-7.55.49v-20L151,74.48l-8.28-13.63-.26,20h.82L143.2,65l7.1,11.74,7-11.51V80.87Zm96.49-34.63v-9l6.53.05v-.87l-6.53.19V27.87l8,.31v-.86H253.23V46.8h11v-.9ZM243,28c3.15,0,5,1.66,5,4.48s-1.75,4.42-4.76,4.42H240.7V28Zm4,18.78h2.65l-6.17-9.2c3.3-.2,5.27-2.11,5.27-5.09,0-3.3-2.19-5.18-5.82-5.18h-4.65V46.8h2.45V37.62h.23ZM235.27,27.32H220.15v.9l6.34-.34V46.8h2.45V27.88l6.34.34ZM210.46,46.24v-9l6.53.05v-.87l-6.53.19V27.87l8,.31v-.86H208V46.8h11v-.9ZM195.08,27.32l.08,15.54L181,27.18v2.11l-.22,17.51h1l-.05-15.52L195.87,47V45.4l.2-18.08ZM168.74,46.24v-9l6.53.05v-.87l-6.53.19V27.87l8,.31v-.86H166.29V46.8h11v-.9Zm-7.86-18.92h-2.45V46.8h2.45ZM148.58,46.1h-3.69v-9h4.23a4.47,4.47,0,0,1,4.58894,4.3478q.00259.09608.00105.1922c0,2.65-1.83,4.5-5.12,4.5m-1-18.08c2.94,0,4.65,1.55,4.65,4.2s-1.8,4.19-4.5,4.19h-2.82V28ZM150,36.55a4.39,4.39,0,0,0,3-4.33c0-3.07-2-4.9-5.44-4.9h-5.12V46.8h6.28c3.55,0,5.77-2.14,5.77-5.2a4.89,4.89,0,0,0-4.5-5" transform="translate(-17.75 -21.87)"/><path class="cls-2" d="M370.54,105.15a4.65,4.65,0,0,0,1.75-.29,3.09,3.09,0,0,0,1.22-.87,3.65,3.65,0,0,0,.7-1.39,6.7901,6.7901,0,0,0,.23-1.88,6.59,6.59,0,0,0-.32-2.09,4.44,4.44,0,0,0-.89-1.59,3.79,3.79,0,0,0-1.39-1,4.57993,4.57993,0,0,0-1.83-.35h-1.59v9.46Zm-5.43.41,1.3-.45a.63987.63987,0,0,0,.2-.12.37.37,0,0,0,.08-.26V96.09a.32992.32992,0,0,0-.08-.24.73028.73028,0,0,0-.2-.12l-1.3-.47v-.65h5.45a8,8,0,0,1,1.24.1,6.15961,6.15961,0,0,1,1.3.38,5.60978,5.60978,0,0,1,1.25.69,4.24975,4.24975,0,0,1,1,1.08,5.51978,5.51978,0,0,1,.73,1.54,7.17028,7.17028,0,0,1,.27,2.05,6.62005,6.62005,0,0,1-.45,2.57,4.99991,4.99991,0,0,1-1.26,1.79,5.09978,5.09978,0,0,1-1.86,1,7.52,7.52,0,0,1-2.29.34H365.1Zm-17.75,0,1.29-.45a.46017.46017,0,0,0,.2-.12.37.37,0,0,0,.08-.26V96.09a.32992.32992,0,0,0-.08-.24.61988.61988,0,0,0-.2-.12l-1.29-.47v-.65h9.15v2.93h-1.09L355.17,96a.34.34,0,0,0-.12-.23.36.36,0,0,0-.22-.08h-4.15v3.94h2.43a.35.35,0,0,0,.24-.08.41985.41985,0,0,0,.09-.22l.24-1.24h.88v4.18h-.88l-.24-1.24a.44.44,0,0,0-.09-.23.32.32,0,0,0-.24-.07h-2.43v4.4h4.75a.33.33,0,0,0,.21-.08.35.35,0,0,0,.13-.23l.25-1.71h1.09v3.11h-9.75Zm-15.28,0,1.35-.45a.52.52,0,0,0,.21-.13.35006.35006,0,0,0,.08-.25v-9h-2.66a.36.36,0,0,0-.23.08.30008.30008,0,0,0-.12.23l-.24,1.72h-1.08V94.62h10.42v3.09h-1.09L338.47,96a.33.33,0,0,0-.12-.23.36.36,0,0,0-.21-.07h-2.66v9a.34009.34009,0,0,0,.09.26.65994.65994,0,0,0,.2.12l1.36.45v.67h-5Zm-15.3,0,1.37-.45a.54.54,0,0,0,.21-.13.37.37,0,0,0,.07-.25V96.09a.32992.32992,0,0,0-.08-.24.65.65,0,0,0-.2-.12l-1.37-.47v-.65h5.07v.65l-1.37.47a.65.65,0,0,0-.21.12.32992.32992,0,0,0-.08.24v8.63a.34009.34009,0,0,0,.09.26.56005.56005,0,0,0,.21.12l1.37.45v.67h-5.07Zm-22.93,0,1.29-.52a.64.64,0,0,0,.2-.11.34.34,0,0,0,.08-.25V96.09a.32992.32992,0,0,0-.08-.24.58023.58023,0,0,0-.2-.12l-1.29-.47v-.65h4.36l2.72,7.71.34,1.32h.16l3.08-9h4.31v.65l-1.28.47a.75.75,0,0,0-.21.12.29.29,0,0,0-.1.24v8.63a.34.34,0,0,0,.08.25.62.62,0,0,0,.22.13l1.28.45v.67h-4.88v-.67l1.27-.45a.59012.59012,0,0,0,.22-.12.37.37,0,0,0,.08-.26v-9.2h-.19L305,96.7l-2.76,7.76-.74,1.76h-1l-3.36-9.52-.34-1.18h-.17v9.15a.32.32,0,0,0,.08.25.63026.63026,0,0,0,.2.12l1.27.52v.67h-4.33Zm-13,0,1.37-.45a.51.51,0,0,0,.21-.13.37.37,0,0,0,.08-.25V96.09a.3.3,0,0,0-.09-.24.57993.57993,0,0,0-.19-.12l-1.37-.47v-.65h5.06v.65l-1.36.47a.56005.56005,0,0,0-.21.12.32992.32992,0,0,0-.08.24v8.63a.37.37,0,0,0,.08.26.61976.61976,0,0,0,.21.12l1.36.45v.67h-5.06Zm-16.85,0,1.29-.45a.52981.52981,0,0,0,.19-.12.33008.33008,0,0,0,.09-.26V96.09a.32992.32992,0,0,0-.08-.24.50005.50005,0,0,0-.2-.12L264,95.27v-.65h4.9v.65l-1.29.47a.59007.59007,0,0,0-.21.12.31.31,0,0,0-.09.24v9h4.27l.11-.06.08-.09a.48907.48907,0,0,0,0-.14l.28-2.41h1.13v3.81H264Zm-23.19,0,1.29-.45a.46.46,0,0,0,.2-.12.37.37,0,0,0,.08-.26V96.09a.33.33,0,0,0-.08-.24.62.62,0,0,0-.2-.12l-1.29-.47v-.65h9.15v2.93h-1.09L248.6,96a.34.34,0,0,0-.13-.23.35.35,0,0,0-.22-.08H244.1v3.94h2.43a.34.34,0,0,0,.24-.08.43.43,0,0,0,.1-.22l.24-1.24H248v4.18h-.88l-.24-1.24a.44.44,0,0,0-.1-.23.32.32,0,0,0-.24-.07H244.1v4.4h4.75a.33.33,0,0,0,.21-.08.34.34,0,0,0,.12-.23l.25-1.71h1.09v3.11h-9.75Zm-15.28,0,1.35-.45a.51006.51006,0,0,0,.21-.13.35.35,0,0,0,.08-.25v-9h-2.66a.36.36,0,0,0-.23.08.31.31,0,0,0-.12.23l-.24,1.72h-1.09V94.62h10.42v3.09h-1.09L231.9,96a.33.33,0,0,0-.13-.23.36.36,0,0,0-.21-.07H228.9v9a.34.34,0,0,0,.09.26.63.63,0,0,0,.2.12l1.36.45v.67h-5Zm-13.06-4.61-1.32-3.22-.28-1.08h-.18l-1.69,4.3Zm-7.31,4.61.85-.42a.76.76,0,0,0,.24-.18,1.00047,1.00047,0,0,0,.15-.25l3.27-8.33.93-1.94h1.08l4.08,10.3a.91016.91016,0,0,0,.14.25.47.47,0,0,0,.21.18l.89.39v.67h-4.34v-.67L214,105l-1.11-2.81h-4.34l-1,2.76,1.36.58v.67h-3.73ZM189.1,96.07a.94019.94019,0,0,0-.13-.23.7298.7298,0,0,0-.23-.18l-.89-.4v-.65h4.33v.65l-1.33.54,2.89,7.31.27,1.05h.17l3.16-8.3-1.33-.6v-.65h3.72v.65l-.86.43a1.31969,1.31969,0,0,0-.22.17.53006.53006,0,0,0-.16.23l-3.29,8.36-.9,1.92h-1.12Zm-13.34,9.49,1.37-.45a.52007.52007,0,0,0,.21-.13.38.38,0,0,0,.08-.25V96.09a.31.31,0,0,0-.09-.24.57993.57993,0,0,0-.19-.12l-1.37-.47v-.65h5.06v.65l-1.36.47a.55991.55991,0,0,0-.21.12.33.33,0,0,0-.08.24v8.63a.36.36,0,0,0,.08.26.60994.60994,0,0,0,.21.12l1.36.45v.67h-5.06Zm-15-5.51h1.39a3.30006,3.30006,0,0,0,1.13-.17,2.38,2.38,0,0,0,.8-.49,1.92,1.92,0,0,0,.47-.71,2.28994,2.28994,0,0,0,.16-.84,2.60006,2.60006,0,0,0-.17-1,1.75992,1.75992,0,0,0-.52-.69,2.06,2.06,0,0,0-.85-.4,4.60976,4.60976,0,0,0-1.18-.13h-1.23Zm-3.32,5.51,1.29-.45a.44008.44008,0,0,0,.21-.12.36.36,0,0,0,.08-.26V96.09a.34.34,0,0,0-.08-.24.56.56,0,0,0-.2-.12l-1.29-.47v-.65h4.88a9.3496,9.3496,0,0,1,1.55.12,5.39013,5.39013,0,0,1,1.13.33,2.69,2.69,0,0,1,.78.5,2.26008,2.26008,0,0,1,.49.61,2.11,2.11,0,0,1,.25.69,3.37935,3.37935,0,0,1,.07.7,3.21,3.21,0,0,1-.24,1.27,3.25,3.25,0,0,1-.63.94,3.37988,3.37988,0,0,1-.84.65,4.11992,4.11992,0,0,1-.89.36l2.92,3.87.1.12.15.15.18.14a.49.49,0,0,0,.17.08l1.33.42v.66h-2a3.18979,3.18979,0,0,1-.65,0,1,1,0,0,1-.4-.16,1.39994,1.39994,0,0,1-.31-.32l-.36-.51-2.78-3.85-1.55-.32v3.71a.37.37,0,0,0,.08.26.63.63,0,0,0,.21.12l1.28.45v.67h-4.9Zm-13.51-5.23.34.07h1.27a2.59983,2.59983,0,0,0,.88-.13A2.00006,2.00006,0,0,0,147,100a1.72974,1.72974,0,0,0,.41-.46,2.24044,2.24044,0,0,0,.24-.51,3.10862,3.10862,0,0,0,.12-.49v-.38a3.29989,3.29989,0,0,0-.13-.94,1.88,1.88,0,0,0-.44-.8,2.09,2.09,0,0,0-.86-.54,3.86,3.86,0,0,0-1.38-.21H143.9Zm-3.32,5.23,1.29-.45a.56.56,0,0,0,.2-.12.37.37,0,0,0,.08-.26V96.09a.33.33,0,0,0-.08-.24.51007.51007,0,0,0-.2-.12l-1.29-.47v-.65h4.8a7.26989,7.26989,0,0,1,1.69.18,4.0001,4.0001,0,0,1,1.37.56,2.76,2.76,0,0,1,.93,1,3,3,0,0,1,.33,1.44,4.18,4.18,0,0,1-.29,1.59,3.46,3.46,0,0,1-.82,1.21,3.6,3.6,0,0,1-1.24.76,4.53,4.53,0,0,1-1.59.27,2.65048,2.65048,0,0,1-.45,0,4.59908,4.59908,0,0,1-.5-.12l-.49-.18a3.33053,3.33053,0,0,1-.42-.21v3.66a.33.33,0,0,0,.09.26.52987.52987,0,0,0,.21.12l1.35.45v.67h-5Z" transform="translate(-17.75 -21.87)"/><path class="cls-3" d="M122.33,67.43V68a.16.16,0,0,1-.16.16h-5a.16.16,0,0,1-.16-.14l-.32-2.1a.16.16,0,0,0-.32,0l-2.43,7.67a.16.16,0,0,1-.32,0l-.95-5.26a.16.16,0,0,0-.16-.13h-1.84a.16.16,0,0,1-.16-.16h0V62a.16.16,0,0,0-.32,0l-2.62,13.53a.16.16,0,0,1-.32,0l-1.48-10.8a.16.16,0,0,0-.32,0l-1.14,3.44a.16.16,0,0,1-.16.11h-19a.16.16,0,0,0-.16.14l-.8,5.28a.16.16,0,0,1-.32,0l-2.51-7.9a.16.16,0,0,0-.32,0l-.41,2.31a.17.17,0,0,1-.16.14h-1.7a.16.16,0,0,0-.16.16h0v11.2a.51.51,0,0,1-1,.1l-2.71-14a.16.16,0,0,0-.32,0l-1.26,9.2a.16.16,0,0,1-.32,0l-2.2-6.6a.15.15,0,0,0-.15-.11H53a.16.16,0,0,1-.16-.16h0v-.61a.16.16,0,0,1,.16-.16H71.33a.16.16,0,0,1,.15.11l1.14,3.44a.16.16,0,0,0,.32,0L74.41,60a.16.16,0,0,1,.32,0l2.62,13.53a.16.16,0,0,0,.32,0v-6a.16.16,0,0,1,.16-.16h1.84a.17.17,0,0,0,.16-.14l.95-5.26a.16.16,0,0,1,.32,0l2.43,7.67a.16.16,0,0,0,.32,0l.32-2.1a.16.16,0,0,1,.16-.14H103.5a.16.16,0,0,0,.16-.11l2.19-6.63a.16.16,0,0,1,.32,0l1.26,9.2a.16.16,0,0,0,.32,0l2.71-14a.51.51,0,0,1,1,.1V67.1a.16.16,0,0,0,.16.16h1.69a.16.16,0,0,1,.16.13l.41,2.31a.16.16,0,0,0,.32,0l2.51-7.9a.16.16,0,0,1,.32,0l.79,5.27a.16.16,0,0,0,.16.14h4.21a.16.16,0,0,1,.14.22Z" transform="translate(-17.75 -21.87)"/><path class="cls-1" d="M113.59,48.78H95.54V30.73a8.86,8.86,0,0,0-8.86-8.86H68.41a8.86,8.86,0,0,0-8.82,8H64a1.87,1.87,0,0,1,1.88992,1.84987L65.89,31.73a1.8,1.8,0,0,1-1.8,1.74H60.64a1.09,1.09,0,0,0,0,2.18h1a1.87,1.87,0,0,1,1.88992,1.84987L63.53,37.51a1.8,1.8,0,0,1-1.8,1.74H60.64a1.09,1.09,0,0,0,0,2.18H64a1.87,1.87,0,0,1,1.88992,1.84987L65.89,43.29a1.8,1.8,0,0,1-1.8,1.74H59.55v3.7H41.49a8.87,8.87,0,0,0-8.86,8.86v1.48H34.8a1.87,1.87,0,0,1,1.88093,1.859q.00021.0355-.00093.071a1.8,1.8,0,0,1-1.8,1.74A2.26,2.26,0,0,0,32.63,65v2.36a2.26,2.26,0,0,0,2.26,2.26H36.4a1.87,1.87,0,0,1,1.88992,1.84987L38.29,71.48a1.8,1.8,0,0,1-1.8,1.74H32.63v2.69a8.86,8.86,0,0,0,8.86,8.86H59.55v2.45H64a1.87,1.87,0,0,1,1.88992,1.84987L65.89,89.08a1.8,1.8,0,0,1-1.8,1.74H60.64a1.09,1.09,0,1,0,0,2.18h1a1.88,1.88,0,0,1,1.89989,1.85989L63.54,94.88a1.8,1.8,0,0,1-1.8,1.73h-1.1a1.09,1.09,0,0,0,0,2.18H64a1.87,1.87,0,0,1,1.88992,1.84987L65.89,100.65a1.8,1.8,0,0,1-1.8,1.74H59.55v.42a8.87,8.87,0,0,0,8.86,8.86H86.67a8.87,8.87,0,0,0,8.86-8.86V84.77h18.06a8.87,8.87,0,0,0,8.86-8.86V57.65A8.87,8.87,0,0,0,113.59,48.78ZM67.46,36.11a1.59,1.59,0,1,1-1.59,1.59h0A1.59,1.59,0,0,1,67.46,36.11ZM40.67,62.73a1.59,1.59,0,1,1,1.59-1.59,1.59,1.59,0,0,1-1.59,1.59ZM67.46,96.62a1.59,1.59,0,1,1,.03029-.00028Zm10.08-9.4a20.4422,20.4422,0,1,1,.02,0Z" transform="translate(-17.75 -21.87)"/><rect class="cls-1" x="30.09" y="8.03" width="10.06" height="3.61" rx="1.8" ry="1.8"/><rect class="cls-1" x="25.01" y="13.82" width="12.77" height="3.61" rx="1.8" ry="1.8"/><rect class="cls-1" x="30.09" y="19.61" width="10.06" height="3.61" rx="1.8" ry="1.8"/><rect class="cls-1" y="37.47" width="12.77" height="3.61" rx="1.8" ry="1.8"/><rect class="cls-1" x="3.28" y="47.75" width="10.06" height="3.61" rx="1.8" ry="1.8"/><rect class="cls-1" x="30.09" y="65.35" width="10.06" height="3.61" rx="1.8" ry="1.8"/><rect class="cls-1" x="25.01" y="71.14" width="12.77" height="3.61" rx="1.8" ry="1.8"/><rect class="cls-1" x="30.09" y="76.93" width="10.06" height="3.61" rx="1.8" ry="1.8"/></svg>