<?xml version="1.0" encoding="utf-8"?>
<!-- Generator: Adobe Illustrator 24.3.0, SVG Export Plug-In . SVG Version: 6.00 Build 0)  -->
<svg version="1.1" id="Layer_1" xmlns="http://www.w3.org/2000/svg" xmlns:xlink="http://www.w3.org/1999/xlink" x="0px" y="0px"
	 viewBox="0 0 417 89.8" style="enable-background:new 0 0 417 89.8;" xml:space="preserve">
<style type="text/css">
	.st0{fill:#3760AA;}
	.st1{fill:#EA2127;}
</style>
<path class="st0" d="M405,78.8c5,0,8.4-2.8,8.4-6.9c0-3.4-1.8-5.4-6.9-7.4c-4.7-1.9-6.1-3.2-6.1-5.7c0-2.7,2.2-4.4,5.8-4.4
	c2.1-0.1,4.1,0.5,5.9,1.6v-0.9c-1.8-1-3.8-1.6-5.9-1.5c-4.6,0-7.7,2.4-7.7,6c0,3.1,1.9,5.1,7.1,7.1c4.5,1.8,6,3.4,6,6.1
	c0,3.2-2.4,5.2-6.3,5.2c-2.5,0.2-5-0.6-7-2.2v0.9C400.1,78.2,402.6,79,405,78.8 M384.3,78V66.4l8.5,0.1v-0.9l-8.5,0.2V54.5l10.3,0.3
	v-0.9h-12.8v24.7h13.5v-0.9L384.3,78z M368.3,78.8c3.1,0.2,6.1-0.7,8.6-2.6v-0.9c-2.2,1.8-4.9,2.8-7.7,2.7
	c-6.4,0-10.9-4.9-10.9-11.8c0-6.9,4.5-11.7,10.8-11.7c2.9-0.1,5.6,0.9,7.8,2.7v-0.9c-2.5-1.9-5.6-2.8-8.7-2.6
	c-7,0-12.6,5.6-12.6,12.6C355.6,73.2,361.2,78.8,368.3,78.8L368.3,78.8L368.3,78.8 M350.1,53.9h-2.4v24.7h2.4V53.9z M333.1,79.2
	l10.7-25.3h-1.2l-8.7,21.5l-9.1-21.5h-2.5L333.1,79.2z M309.6,54.7h3c4.3,0,6.6,2.2,6.6,5.8c0,3.6-2.4,5.7-6.3,5.7h-3.2L309.6,54.7z
	 M318.5,78.6h2.6l-8.2-11.8c4.5-0.1,7.2-2.6,7.2-6.4c0-4.1-2.7-6.5-7.5-6.5h-5.4v24.7h2.4V66.8h0.7L318.5,78.6z M291.5,78V66.4
	l8.5,0.1v-0.9l-8.5,0.2V54.5l10.3,0.3v-0.9h-12.8v24.7h13.4v-0.9L291.5,78z M275.6,78.9c5,0,8.4-2.8,8.4-6.9c0-3.4-1.8-5.4-6.9-7.4
	c-4.7-1.9-6.1-3.2-6.1-5.7c0-2.7,2.2-4.4,5.8-4.4c2.1-0.1,4.1,0.5,5.9,1.6v-0.9c-1.8-1-3.8-1.6-5.9-1.5c-4.6,0-7.7,2.4-7.7,6
	c0,3.1,1.9,5.1,7.1,7.1c4.5,1.8,6,3.4,6,6.1c0,3.2-2.4,5.2-6.3,5.2c-2.5,0.2-5-0.6-7-2.2v0.9C270.7,78.3,273.2,79,275.6,78.9
	 M248.2,77.9V53.8h-2.5v24.7H259v-1L248.2,77.9z M225.8,67.3l4.3-10.6l4.5,10.6H225.8z M239.4,78.5h2.5l-11.1-25.3l-10.8,25.3h1.1
	l4.3-10.5h9.4L239.4,78.5z M209.9,78.8c3.1,0.2,6.2-0.7,8.7-2.6v-0.9c-2.2,1.8-4.9,2.8-7.7,2.7c-6.4,0-10.9-4.9-10.9-11.8
	c0-6.9,4.5-11.7,10.8-11.7c2.9-0.1,5.6,0.9,7.8,2.7v-0.9c-2.5-1.9-5.6-2.8-8.7-2.6c-7,0-12.6,5.6-12.6,12.6S202.9,78.8,209.9,78.8
	L209.9,78.8 M191.7,53.9h-2.4v24.7h2.4V53.9z M171,77.9h-5.2V54.7h5.2c7.2,0,12.1,4.7,12.1,11.6S178.3,77.9,171,77.9 M171.1,54h-7.7
	v24.6h7.7c7.6,0,12.7-5.1,12.7-12.3S178.8,53.9,171.1,54 M147.8,78V66.4l8.5,0.1v-0.9l-8.5,0.2V54.5l10.3,0.3v-0.9h-12.8v24.7h13.4
	v-0.9L147.8,78z M138.2,78.6V53.2l-10.4,17.2l-10.5-17.3L117,78.6h1L118,58.5l9,14.9l8.9-14.6v19.8L138.2,78.6z M260.5,34.7V23.3
	l8.3,0.1v-1.1l-8.3,0.2V11.4l10.1,0.4v-1.1h-13.2v24.7h13.9v-1.1L260.5,34.7z M244.4,11.6c4,0,6.3,2.1,6.3,5.7s-2.2,5.6-6,5.6h-3.2
	V11.6H244.4z M249.5,35.4h3.4L245,23.7c4.2-0.3,6.7-2.7,6.7-6.4c0-4.2-2.8-6.6-7.4-6.6h-5.9v24.7h3.1V23.8h0.3L249.5,35.4z
	 M234.6,10.7h-19.2v1.1l8-0.4v24h3.1v-24l8,0.4L234.6,10.7z M203.2,34.7V23.3l8.3,0.1v-1.1l-8.3,0.2V11.4l10.1,0.4v-1.1h-13.3v24.7
	H214v-1.1L203.2,34.7z M183.7,10.7l0.1,19.7l-17.9-19.9v2.7l-0.3,22.2h1.3l-0.1-19.7l17.9,19.9v-2l0.3-22.9L183.7,10.7z M150.3,34.7
	V23.3l8.3,0.1v-1.1l-8.3,0.2V11.4l10.1,0.4v-1.1h-13.2v24.7h13.9v-1.1L150.3,34.7z M140.4,10.7h-3.1v24.7h3.1V10.7z M124.8,34.5
	h-4.7V23.1h5.4c3.1-0.1,5.7,2.4,5.8,5.5c0,0.1,0,0.2,0,0.2C131.3,32.2,129,34.6,124.8,34.5 M123.5,11.7c3.7,0,5.9,2,5.9,5.3
	s-2.3,5.3-5.7,5.3h-3.6V11.6L123.5,11.7z M126.6,22.4c2.3-0.8,3.9-3,3.8-5.5c0-3.9-2.5-6.2-6.9-6.2H117v24.7h8
	c4.5,0,7.3-2.7,7.3-6.6C132.3,25.5,129.8,22.7,126.6,22.4"/>
<path class="st1" d="M104.6,45.6v0.6c0,0.1-0.1,0.2-0.2,0.2h0h-5c-0.1,0-0.1-0.1-0.2-0.1l-0.3-2.1c0-0.1-0.1-0.2-0.2-0.2
	c-0.1,0-0.2,0.1-0.2,0.2l-2.4,7.7c0,0.1-0.1,0.2-0.2,0.2c-0.1,0-0.2-0.1-0.2-0.2l-0.9-5.3c0-0.1-0.1-0.1-0.2-0.1h-1.8
	c-0.1,0-0.2-0.1-0.2-0.2v0l0,0v-6c0-0.1-0.1-0.2-0.2-0.2c-0.1,0-0.2,0.1-0.2,0.2l-2.6,13.5c0,0.1-0.1,0.2-0.2,0.2
	c-0.1,0-0.2-0.1-0.2-0.2L88,42.9c0-0.1-0.1-0.2-0.2-0.2c-0.1,0-0.2,0.1-0.2,0.2l-1.1,3.4c0,0.1-0.1,0.1-0.2,0.1h-19
	c-0.1,0-0.1,0.1-0.2,0.1l-0.8,5.3c0,0.1-0.1,0.2-0.2,0.2c-0.1,0-0.2-0.1-0.2-0.2l-2.5-7.9c0-0.1-0.1-0.2-0.2-0.2
	c-0.1,0-0.2,0.1-0.2,0.2l-0.4,2.3c0,0.1-0.1,0.1-0.2,0.1H61c-0.1,0-0.2,0.1-0.2,0.2v0l0,0v11.2c0,0.3-0.3,0.5-0.5,0.5
	c-0.2,0-0.4-0.2-0.5-0.4l-2.7-14c0-0.1-0.1-0.2-0.2-0.2c-0.1,0-0.2,0.1-0.2,0.2L55.6,53c0,0.1-0.1,0.2-0.2,0.2
	c-0.1,0-0.2-0.1-0.2-0.2L53,46.4c0-0.1-0.1-0.1-0.2-0.1H35.2c-0.1,0-0.2-0.1-0.2-0.2l0,0l0,0v-0.6c0-0.1,0.1-0.2,0.2-0.2h0h18.3
	c0.1,0,0.1,0,0.2,0.1l1.1,3.4c0,0.1,0.1,0.2,0.2,0.2c0.1,0,0.2-0.1,0.2-0.2l1.5-10.8c0-0.1,0.1-0.2,0.2-0.2c0.1,0,0.2,0.1,0.2,0.2
	l2.6,13.5c0,0.1,0.1,0.2,0.2,0.2c0.1,0,0.2-0.1,0.2-0.2v-6c0-0.1,0.1-0.2,0.2-0.2h0h1.8c0.1,0,0.1-0.1,0.2-0.1l0.9-5.3
	c0-0.1,0.1-0.2,0.2-0.2c0.1,0,0.2,0.1,0.2,0.2l2.4,7.7c0,0.1,0.1,0.2,0.2,0.2c0.1,0,0.2-0.1,0.2-0.2l0.3-2.1c0-0.1,0.1-0.1,0.2-0.1
	h19.2c0.1,0,0.1,0,0.2-0.1l2.2-6.6c0-0.1,0.1-0.2,0.2-0.2c0.1,0,0.2,0.1,0.2,0.2l1.3,9.2c0,0.1,0.1,0.2,0.2,0.2
	c0.1,0,0.2-0.1,0.2-0.2l2.7-14c0.1-0.3,0.4-0.4,0.6-0.4c0.2,0.1,0.4,0.2,0.4,0.5v11.1c0,0.1,0.1,0.2,0.2,0.2h0h1.7
	c0.1,0,0.1,0.1,0.2,0.1l0.4,2.3c0,0.1,0.1,0.2,0.2,0.2c0.1,0,0.2-0.1,0.2-0.2l2.5-7.9c0-0.1,0.1-0.2,0.2-0.2c0.1,0,0.2,0.1,0.2,0.2
	l0.8,5.3c0,0.1,0.1,0.1,0.2,0.1h4.2C104.5,45.3,104.6,45.4,104.6,45.6C104.6,45.5,104.6,45.5,104.6,45.6L104.6,45.6z"/>
<path class="st0" d="M95.8,26.9h-18v-18c0-4.9-4-8.9-8.9-8.9l0,0H50.7c-4.6,0-8.4,3.5-8.8,8h4.4c1,0,1.9,0.8,1.9,1.8c0,0,0,0,0,0
	l0,0c0,1-0.8,1.7-1.8,1.7h-3.4c-0.6,0-1.1,0.5-1.1,1.1s0.5,1.1,1.1,1.1h1c1,0,1.9,0.8,1.9,1.8c0,0,0,0,0,0l0,0c0,1-0.8,1.7-1.8,1.7
	h-1.1c-0.6,0-1.1,0.5-1.1,1.1s0.5,1.1,1.1,1.1h3.4c1,0,1.9,0.8,1.9,1.8c0,0,0,0,0,0l0,0c0,1-0.8,1.7-1.8,1.7h-4.5v3.7H23.7
	c-4.9,0-8.9,4-8.9,8.9v1.5H17c1,0,1.9,0.8,1.9,1.9c0,0,0,0,0,0.1c0,1-0.8,1.7-1.8,1.7c-1.2,0-2.3,1-2.2,2.3v2.4c0,1.2,1,2.3,2.3,2.3
	l0,0h1.5c1,0,1.9,0.8,1.9,1.8l0,0l0,0c0,1-0.8,1.7-1.8,1.7h-3.9V54c0,4.9,4,8.9,8.9,8.9l0,0h18.1v2.4h4.5c1,0,1.9,0.8,1.9,1.8v0l0,0
	c0,1-0.8,1.7-1.8,1.7h-3.4c-0.6,0-1.1,0.5-1.1,1.1c0,0.6,0.5,1.1,1.1,1.1h1c1,0,1.9,0.8,1.9,1.9l0,0c0,1-0.8,1.7-1.8,1.7h-1.1
	c-0.6,0-1.1,0.5-1.1,1.1c0,0.6,0.5,1.1,1.1,1.1h3.4c1,0,1.9,0.8,1.9,1.8v0l0,0c0,1-0.8,1.7-1.8,1.7h-4.5v0.4c0,4.9,4,8.9,8.9,8.9
	h18.3c4.9,0,8.9-4,8.9-8.9v-18h18.1c4.9,0,8.9-4,8.9-8.9V35.8C104.7,30.9,100.7,26.9,95.8,26.9z M49.7,14.2c0.9,0,1.6,0.7,1.6,1.6
	s-0.7,1.6-1.6,1.6c-0.9,0-1.6-0.7-1.6-1.6v0l0,0C48.1,15,48.8,14.2,49.7,14.2z M22.9,40.9c-0.9,0-1.6-0.7-1.6-1.6
	c0-0.9,0.7-1.6,1.6-1.6s1.6,0.7,1.6,1.6C24.5,40.1,23.8,40.9,22.9,40.9L22.9,40.9z M49.7,74.8c-0.9,0-1.6-0.7-1.6-1.6
	c0-0.9,0.7-1.6,1.6-1.6c0.9,0,1.6,0.7,1.6,1.6C51.3,74,50.6,74.7,49.7,74.8L49.7,74.8z M59.8,65.3c-11.3,0-20.4-9.2-20.4-20.5
	c0-11.3,9.2-20.4,20.5-20.4c11.3,0,20.4,9.2,20.4,20.5C80.2,56.2,71.1,65.3,59.8,65.3L59.8,65.3z"/>
<path class="st0" d="M31.9,8h6.5c1,0,1.8,0.8,1.8,1.8v0c0,1-0.8,1.8-1.8,1.8h-6.5c-1,0-1.8-0.8-1.8-1.8v0C30.1,8.8,30.9,8,31.9,8z"
	/>
<path class="st0" d="M26.8,13.8H36c1,0,1.8,0.8,1.8,1.8v0c0,1-0.8,1.8-1.8,1.8h-9.2c-1,0-1.8-0.8-1.8-1.8v0
	C25,14.6,25.8,13.8,26.8,13.8z"/>
<path class="st0" d="M31.9,19.6h6.5c1,0,1.8,0.8,1.8,1.8v0c0,1-0.8,1.8-1.8,1.8h-6.5c-1,0-1.8-0.8-1.8-1.8v0
	C30.1,20.4,30.9,19.6,31.9,19.6z"/>
<path class="st0" d="M1.8,37.5H11c1,0,1.8,0.8,1.8,1.8v0c0,1-0.8,1.8-1.8,1.8H1.8c-1,0-1.8-0.8-1.8-1.8v0C0,38.3,0.8,37.5,1.8,37.5z
	"/>
<path class="st0" d="M5.1,47.8h6.5c1,0,1.8,0.8,1.8,1.8v0c0,1-0.8,1.8-1.8,1.8H5.1c-1,0-1.8-0.8-1.8-1.8v0
	C3.3,48.6,4.1,47.8,5.1,47.8z"/>
<path class="st0" d="M31.9,65.3h6.5c1,0,1.8,0.8,1.8,1.8v0c0,1-0.8,1.8-1.8,1.8h-6.5c-1,0-1.8-0.8-1.8-1.8v0
	C30.1,66.2,30.9,65.3,31.9,65.3z"/>
<path class="st0" d="M26.8,71.1H36c1,0,1.8,0.8,1.8,1.8v0c0,1-0.8,1.8-1.8,1.8h-9.2c-1,0-1.8-0.8-1.8-1.8v0
	C25,71.9,25.8,71.1,26.8,71.1z"/>
<path class="st0" d="M31.9,76.9h6.5c1,0,1.8,0.8,1.8,1.8v0c0,1-0.8,1.8-1.8,1.8h-6.5c-1,0-1.8-0.8-1.8-1.8v0
	C30.1,77.7,30.9,76.9,31.9,76.9z"/>
</svg>
