<?xml version="1.0" encoding="utf-8"?>
<!-- Generator: Adobe Illustrator 24.3.0, SVG Export Plug-In . SVG Version: 6.00 Build 0)  -->
<svg version="1.1" id="Layer_1" xmlns="http://www.w3.org/2000/svg" xmlns:xlink="http://www.w3.org/1999/xlink" x="0px" y="0px"
	 viewBox="0 0 475.4 97.3" style="enable-background:new 0 0 475.4 97.3;" xml:space="preserve">
<style type="text/css">
	.st0{fill:#3760AA;}
	.st1{fill:#EA2127;}
</style>
<path class="st0" d="M462.5,91.4c5.7,0,9.6-3.2,9.6-7.9c0-3.9-2.1-6.2-7.9-8.5c-5.4-2.2-7.1-3.7-7.1-6.6c0-3.1,2.5-5,6.6-5
	c2.4-0.1,4.7,0.6,6.8,1.8v-1c-2.1-1.2-4.4-1.8-6.8-1.7c-5.3,0-8.8,2.7-8.8,6.9c0,3.6,2.2,5.8,8.1,8.1c5.1,2,6.8,3.9,6.8,7
	c0,3.7-2.8,6-7.3,6c-2.9,0.2-5.8-0.7-8-2.6V89C456.9,90.7,459.7,91.5,462.5,91.4 M438.7,90.4V77.1l9.8,0.1v-1.1l-9.8,0.2V63.4
	l11.9,0.4v-1.1h-14.7V91h15.5v-1.1L438.7,90.4z M420.3,91.4c3.5,0.2,7.1-0.8,9.9-3v-1.1c-2.5,2.1-5.6,3.2-8.9,3.1
	c-7.4,0-12.6-5.6-12.6-13.6c0-7.9,5.2-13.5,12.5-13.5c3.3-0.1,6.5,1.1,9,3.2v-1c-2.9-2.1-6.4-3.2-10-3c-8,0-14.5,6.5-14.5,14.5
	S412.2,91.4,420.3,91.4L420.3,91.4L420.3,91.4 M399.4,62.7h-2.8V91h2.8V62.7z M379.9,91.8l12.3-29.1h-1.4l-10,24.7l-10.4-24.7h-2.9
	L379.9,91.8z M352.9,63.6h3.5c5,0,7.6,2.5,7.6,6.6s-2.7,6.5-7.3,6.5H353L352.9,63.6z M363.1,91.1h3l-9.5-13.6c5.1-0.1,8.3-3,8.3-7.4
	c0-4.7-3.1-7.5-8.6-7.5h-6.2V91h2.8V77.6h0.8L363.1,91.1z M332.2,90.4V77.1l9.8,0.1v-1.1l-9.8,0.2V63.4l11.9,0.4v-1.1h-14.7V91h15.4
	v-1.1L332.2,90.4z M313.9,91.4c5.7,0,9.6-3.2,9.6-7.9c0-3.9-2.1-6.2-7.9-8.5c-5.4-2.2-7.1-3.7-7.1-6.6c0-3.1,2.5-5,6.6-5
	c2.4-0.1,4.7,0.6,6.8,1.8v-1c-2.1-1.2-4.4-1.8-6.8-1.7c-5.3,0-8.8,2.7-8.8,6.9c0,3.6,2.2,5.8,8.1,8.1c5.1,2,6.8,3.9,6.8,7
	c0,3.7-2.8,6-7.3,6c-2.9,0.2-5.8-0.7-8-2.6V89C308.3,90.7,311.1,91.6,313.9,91.4 M282.4,90.3V62.7h-2.9v28.4h15.3V90L282.4,90.3z
	 M256.7,78.2l4.9-12.1l5.2,12.1H256.7z M272.3,91h2.9l-12.7-29.1L250,91h1.3l4.9-12H267L272.3,91z M238.4,91.3c3.6,0.3,7.1-0.8,10-3
	v-1.1c-2.5,2.1-5.6,3.2-8.9,3.1c-7.4,0-12.6-5.6-12.6-13.6c0-7.9,5.2-13.5,12.5-13.5c3.3-0.1,6.5,1.1,9,3.2v-0.9
	c-2.9-2.1-6.4-3.2-10-3c-8,0-14.5,6.5-14.5,14.5C223.9,84.9,230.4,91.4,238.4,91.3L238.4,91.3 M217.5,62.7h-2.8V91h2.8V62.7z
	 M193.8,90.3h-6V63.6h5.9c8.3,0,13.9,5.4,13.9,13.3S202.1,90.3,193.8,90.3 M193.9,62.8h-8.8v28.3h8.8c8.7,0,14.6-5.8,14.6-14.2
	S202.7,62.7,193.9,62.8 M167.1,90.4V77.1l9.8,0.1v-1.1l-9.8,0.2V63.4l11.9,0.4v-1.1h-14.7V91h15.4v-1.1L167.1,90.4z M156.1,91.1V62
	l-11.9,19.8l-12-19.8l-0.4,29.1h1.2L132.9,68l10.3,17.1l10.2-16.7v22.8L156.1,91.1z M296.5,40.7V27.6l9.5,0.1v-1.3l-9.5,0.3V14
	l11.6,0.5v-1.3h-15.2v28.3h16v-1.3L296.5,40.7z M278,14.1c4.6,0,7.3,2.4,7.3,6.5s-2.5,6.4-6.9,6.4h-3.7V14.1H278z M283.9,41.5h3.9
	l-9-13.4c4.8-0.3,7.7-3.1,7.7-7.4c0-4.8-3.2-7.5-8.5-7.5h-6.8v28.3h3.6V28.1h0.3L283.9,41.5z M266.8,13.2h-22v1.3L254,14v27.5h3.6
	V14l9.2,0.5V13.2z M230.7,40.7V27.6l9.5,0.1v-1.3l-9.5,0.3V14l11.6,0.5v-1.3h-15.2v28.3h16v-1.3L230.7,40.7z M208.3,13.2l0.1,22.6
	L187.8,13v3.1l-0.3,25.4h1.5l-0.1-22.6l20.6,22.9v-2.3l0.3-26.3L208.3,13.2z M170,40.7V27.6l9.5,0.1v-1.3l-9.5,0.3V14l11.6,0.5v-1.3
	h-15.2v28.3h16v-1.3L170,40.7z M158.6,13.2H155v28.3h3.6V13.2z M140.7,40.5h-5.4V27.4h6.2c3.6-0.1,6.6,2.7,6.7,6.3
	c0,0.1,0,0.2,0,0.3C148.1,37.9,145.5,40.5,140.7,40.5 M139.2,14.2c4.3,0,6.8,2.3,6.8,6.1s-2.6,6.1-6.5,6.1h-4.1V14.1L139.2,14.2z
	 M142.7,26.6c2.7-0.9,4.5-3.5,4.4-6.3c0-4.5-2.9-7.1-7.9-7.1h-7.4v28.3h9.1c5.2,0,8.4-3.1,8.4-7.6C149.4,30.2,146.5,27,142.7,26.6"
	/>
<path class="st1" d="M104.6,53.1v0.6c0,0.1-0.1,0.2-0.2,0.2l0,0h-5c-0.1,0-0.1-0.1-0.2-0.1l-0.3-2.1c0-0.1-0.1-0.2-0.2-0.2
	s-0.2,0.1-0.2,0.2l-2.4,7.7c0,0.1-0.1,0.2-0.2,0.2s-0.2-0.1-0.2-0.2l-0.9-5.3c0-0.1-0.1-0.1-0.2-0.1h-1.8c-0.1,0-0.2-0.1-0.2-0.2
	l0,0l0,0v-6c0-0.1-0.1-0.2-0.2-0.2s-0.2,0.1-0.2,0.2l-2.6,13.5c0,0.1-0.1,0.2-0.2,0.2s-0.2-0.1-0.2-0.2L88,50.4
	c0-0.1-0.1-0.2-0.2-0.2s-0.2,0.1-0.2,0.2l-1.1,3.4c0,0.1-0.1,0.1-0.2,0.1h-19c-0.1,0-0.1,0.1-0.2,0.1l-0.8,5.3
	c0,0.1-0.1,0.2-0.2,0.2s-0.2-0.1-0.2-0.2l-2.5-7.9c0-0.1-0.1-0.2-0.2-0.2c-0.1,0-0.2,0.1-0.2,0.2l-0.4,2.3c0,0.1-0.1,0.1-0.2,0.1H61
	c-0.1,0-0.2,0.1-0.2,0.2l0,0l0,0v11.2c0,0.3-0.3,0.5-0.5,0.5s-0.4-0.2-0.5-0.4l-2.7-14c0-0.1-0.1-0.2-0.2-0.2
	c-0.1,0-0.2,0.1-0.2,0.2l-1.1,9.2c0,0.1-0.1,0.2-0.2,0.2c-0.1,0-0.2-0.1-0.2-0.2L53,53.9c0-0.1-0.1-0.1-0.2-0.1H35.2
	c-0.1,0-0.2-0.1-0.2-0.2l0,0l0,0V53c0-0.1,0.1-0.2,0.2-0.2l0,0h18.3c0.1,0,0.1,0,0.2,0.1l1.1,3.4c0,0.1,0.1,0.2,0.2,0.2
	c0.1,0,0.2-0.1,0.2-0.2l1.5-10.8c0-0.1,0.1-0.2,0.2-0.2c0.1,0,0.2,0.1,0.2,0.2L59.7,59c0,0.1,0.1,0.2,0.2,0.2c0.1,0,0.2-0.1,0.2-0.2
	v-6c0-0.1,0.1-0.2,0.2-0.2l0,0h1.8c0.1,0,0.1-0.1,0.2-0.1l0.9-5.3c0-0.1,0.1-0.2,0.2-0.2c0.1,0,0.2,0.1,0.2,0.2l2.4,7.7
	c0,0.1,0.1,0.2,0.2,0.2s0.2-0.1,0.2-0.2l0.3-2.1c0-0.1,0.1-0.1,0.2-0.1h19.2c0.1,0,0.1,0,0.2-0.1l2.2-6.6c0-0.1,0.1-0.2,0.2-0.2
	s0.2,0.1,0.2,0.2l1.3,9.2c0,0.1,0.1,0.2,0.2,0.2s0.2-0.1,0.2-0.2l2.7-14c0.1-0.3,0.4-0.4,0.6-0.4c0.2,0.1,0.4,0.2,0.4,0.5v11.1
	c0,0.1,0.1,0.2,0.2,0.2l0,0h1.7c0.1,0,0.1,0.1,0.2,0.1l0.4,2.3c0,0.1,0.1,0.2,0.2,0.2s0.2-0.1,0.2-0.2l2.5-7.9
	c0-0.1,0.1-0.2,0.2-0.2s0.2,0.1,0.2,0.2l0.8,5.3c0,0.1,0.1,0.1,0.2,0.1h4.2C104.5,52.8,104.6,52.9,104.6,53.1
	C104.6,53,104.6,53,104.6,53.1L104.6,53.1z"/>
<path class="st0" d="M95.8,34.4h-18v-18c0-4.9-4-8.9-8.9-8.9l0,0H50.7c-4.6,0-8.4,3.5-8.8,8h4.4c1,0,1.9,0.8,1.9,1.8l0,0l0,0
	c0,1-0.8,1.7-1.8,1.7H43c-0.6,0-1.1,0.5-1.1,1.1s0.5,1.1,1.1,1.1h1c1,0,1.9,0.8,1.9,1.8l0,0l0,0c0,1-0.8,1.7-1.8,1.7H43
	c-0.6,0-1.1,0.5-1.1,1.1s0.5,1.1,1.1,1.1h3.4c1,0,1.9,0.8,1.9,1.8l0,0l0,0c0,1-0.8,1.7-1.8,1.7H42v3.7H23.7c-4.9,0-8.9,4-8.9,8.9
	v1.5H17c1,0,1.9,0.8,1.9,1.9c0,0,0,0,0,0.1c0,1-0.8,1.7-1.8,1.7c-1.2,0-2.3,1-2.2,2.3v2.4c0,1.2,1,2.3,2.3,2.3l0,0h1.5
	c1,0,1.9,0.8,1.9,1.8l0,0l0,0c0,1-0.8,1.7-1.8,1.7h-3.9v2.8c0,4.9,4,8.9,8.9,8.9l0,0h18.1v2.4h4.5c1,0,1.9,0.8,1.9,1.8l0,0l0,0
	c0,1-0.8,1.7-1.8,1.7h-3.4c-0.6,0-1.1,0.5-1.1,1.1s0.5,1.1,1.1,1.1h1c1,0,1.9,0.8,1.9,1.9l0,0c0,1-0.8,1.7-1.8,1.7h-1.1
	c-0.6,0-1.1,0.5-1.1,1.1s0.5,1.1,1.1,1.1h3.4c1,0,1.9,0.8,1.9,1.8l0,0l0,0c0,1-0.8,1.7-1.8,1.7h-4.5v0.4c0,4.9,4,8.9,8.9,8.9h18.3
	c4.9,0,8.9-4,8.9-8.9v-18h18.1c4.9,0,8.9-4,8.9-8.9v-18C104.7,38.4,100.7,34.4,95.8,34.4z M49.7,21.7c0.9,0,1.6,0.7,1.6,1.6
	c0,0.9-0.7,1.6-1.6,1.6c-0.9,0-1.6-0.7-1.6-1.6l0,0l0,0C48.1,22.5,48.8,21.7,49.7,21.7z M22.9,48.4c-0.9,0-1.6-0.7-1.6-1.6
	c0-0.9,0.7-1.6,1.6-1.6s1.6,0.7,1.6,1.6C24.5,47.6,23.8,48.4,22.9,48.4L22.9,48.4z M49.7,82.3c-0.9,0-1.6-0.7-1.6-1.6
	s0.7-1.6,1.6-1.6c0.9,0,1.6,0.7,1.6,1.6C51.3,81.5,50.6,82.2,49.7,82.3L49.7,82.3z M59.8,72.8c-11.3,0-20.4-9.2-20.4-20.5
	s9.2-20.4,20.5-20.4s20.4,9.2,20.4,20.5C80.2,63.7,71.1,72.8,59.8,72.8L59.8,72.8z"/>
<path class="st0" d="M31.9,15.5h6.5c1,0,1.8,0.8,1.8,1.8l0,0c0,1-0.8,1.8-1.8,1.8h-6.5c-1,0-1.8-0.8-1.8-1.8l0,0
	C30.1,16.3,30.9,15.5,31.9,15.5z"/>
<path class="st0" d="M26.8,21.3H36c1,0,1.8,0.8,1.8,1.8l0,0c0,1-0.8,1.8-1.8,1.8h-9.2c-1,0-1.8-0.8-1.8-1.8l0,0
	C25,22.1,25.8,21.3,26.8,21.3z"/>
<path class="st0" d="M31.9,27.1h6.5c1,0,1.8,0.8,1.8,1.8l0,0c0,1-0.8,1.8-1.8,1.8h-6.5c-1,0-1.8-0.8-1.8-1.8l0,0
	C30.1,27.9,30.9,27.1,31.9,27.1z"/>
<path class="st0" d="M1.8,45H11c1,0,1.8,0.8,1.8,1.8l0,0c0,1-0.8,1.8-1.8,1.8H1.8c-1,0-1.8-0.8-1.8-1.8l0,0C0,45.8,0.8,45,1.8,45z"
	/>
<path class="st0" d="M5.1,55.3h6.5c1,0,1.8,0.8,1.8,1.8l0,0c0,1-0.8,1.8-1.8,1.8H5.1c-1,0-1.8-0.8-1.8-1.8l0,0
	C3.3,56.1,4.1,55.3,5.1,55.3z"/>
<path class="st0" d="M31.9,72.8h6.5c1,0,1.8,0.8,1.8,1.8l0,0c0,1-0.8,1.8-1.8,1.8h-6.5c-1,0-1.8-0.8-1.8-1.8l0,0
	C30.1,73.7,30.9,72.8,31.9,72.8z"/>
<path class="st0" d="M26.8,78.6H36c1,0,1.8,0.8,1.8,1.8l0,0c0,1-0.8,1.8-1.8,1.8h-9.2c-1,0-1.8-0.8-1.8-1.8l0,0
	C25,79.4,25.8,78.6,26.8,78.6z"/>
<path class="st0" d="M31.9,84.4h6.5c1,0,1.8,0.8,1.8,1.8l0,0c0,1-0.8,1.8-1.8,1.8h-6.5c-1,0-1.8-0.8-1.8-1.8l0,0
	C30.1,85.2,30.9,84.4,31.9,84.4z"/>
<path class="st0" d="M241.9,9.7l-0.3,0.3c-0.3,0.3-0.9,0.3-1.2,0l-5.9-5.9l-5.9,5.9c-0.3,0.3-0.9,0.3-1.2,0l-0.3-0.3
	c-0.3-0.3-0.3-0.9,0-1.2l6.3-6.3l0.5-0.5c0.1-0.1,0.3-0.2,0.4-0.2c0.1,0,0.2,0,0.3,0c0.2,0,0.3,0.1,0.4,0.2l6.8,6.8
	C242.2,8.8,242.2,9.4,241.9,9.7z"/>
</svg>
